<?xml version="1.0" encoding="UTF-8" standalone="no"?>
<svg
   id="a"
   viewBox="0 0 593.54 574.27"
   version="1.1"
   sodipodi:docname="RVB_VERTICAL_WHITE_BG_SEARCH-A-LICIOUS.svg"
   inkscape:version="1.2.2 (b0a8486541, 2022-12-01)"
   xml:space="preserve"
   xmlns:inkscape="http://www.inkscape.org/namespaces/inkscape"
   xmlns:sodipodi="http://sodipodi.sourceforge.net/DTD/sodipodi-0.dtd"
   xmlns="http://www.w3.org/2000/svg"
   xmlns:svg="http://www.w3.org/2000/svg"><sodipodi:namedview
     id="namedview87"
     pagecolor="#ffffff"
     bordercolor="#666666"
     borderopacity="1.0"
     inkscape:showpageshadow="2"
     inkscape:pageopacity="0.0"
     inkscape:pagecheckerboard="0"
     inkscape:deskcolor="#d1d1d1"
     showgrid="false"
     inkscape:zoom="1.046617"
     inkscape:cx="378.83963"
     inkscape:cy="356.86407"
     inkscape:window-width="1920"
     inkscape:window-height="1016"
     inkscape:window-x="1536"
     inkscape:window-y="27"
     inkscape:window-maximized="1"
     inkscape:current-layer="a"
     showguides="true" /><defs
     id="defs4"><style
       id="style2">.b{fill:none;}.c{fill:#fff;}.d{fill:#ffe6dc;}.e{fill:#ff6e78;}.f{fill:#aaa;}</style></defs><g
     id="g374"><rect
       class="b"
       width="593.54"
       height="574.27"
       id="rect6" /><g
       id="g48" /><path
       class="c"
       d="m 333.02,155.88 c 0,20.21 -16.38,36.58 -36.58,36.58 -20.21,0 -36.58,-16.38 -36.58,-36.58 h 73.17 z"
       id="path58" /><text
       xml:space="preserve"
       style="font-style:normal;font-weight:normal;font-size:73.6604px;line-height:1.25;font-family:sans-serif;letter-spacing:0px;word-spacing:0px;fill:#ffffff;fill-opacity:1;stroke:none;stroke-width:1.84151"
       x="40.501423"
       y="461.38281"
       id="text2775"
       transform="rotate(-9.7046355)"><tspan
         sodipodi:role="line"
         id="tspan2773"
         x="40.501423"
         y="461.38281"
         style="stroke-width:1.84151" /></text><rect
       class="b"
       width="593.53998"
       height="574.27002"
       id="rect18263"
       style="fill:none"
       x="0"
       y="0" /><path
       d="m 305.28,155.88 c 0,-4.9 -3.92,-8.88 -8.75,-8.88 -4.83,0 -8.75,3.98 -8.75,8.88 h 17.49 z"
       id="path18341" /><g
       id="g349"><g
         id="g12752"><path
           id="path4485"
           style="fill:#762694;fill-opacity:1;stroke-width:0.381681"
           d="m 297.58687,106.94733 a 49.126495,49.126495 0 0 0 -13.88542,1.66055 49.126495,49.126495 0 0 0 -17.87194,9.07743 l 2.34546,2.96988 c 4.72623,-3.79769 10.28438,-6.70735 16.50798,-8.37497 3.59973,-0.96455 7.21522,-1.45262 10.78481,-1.52396 l -0.0469,3.96503 0.11708,4.11333 c 6.53373,-0.14444 12.87509,1.45657 18.44757,4.46848 l 1.90446,-3.54551 c -5.03101,-2.718 -10.61905,-4.41358 -16.43578,-4.85678 l 0.0469,-4.03918 c 18.687,1.31632 35.36826,14.26043 40.48161,33.34377 1.0447,3.89889 1.534,7.81738 1.53372,11.6746 H 345.54 a 49.126495,49.126495 0 0 0 -1.67032,-12.53513 49.126495,49.126495 0 0 0 -46.28281,-36.39754 z m -8.63644,8.53107 c -1.075,0.19241 -2.15153,0.41274 -3.22549,0.70051 -7.11836,1.90736 -13.29289,5.5874 -18.1939,10.43164 l -5.66071,-5.31729 A 49.126495,49.126495 0 0 0 247.54,155.88 h 3.69772 c 0.007,-10.72669 3.85516,-20.9753 10.56627,-28.99432 l 2.99914,2.69864 c -3.6289,4.36548 -6.31958,9.45497 -7.90861,14.91962 l 7.69592,2.36302 c -0.82896,2.89868 -1.25756,5.92903 -1.26054,9.01304 h 4.02748 c 0.008,-12.80125 8.56069,-24.54342 21.50134,-28.01087 2.14975,-0.57603 4.30916,-0.88515 6.44514,-0.96394 l -0.0858,4.03919 c -1.76263,0.0815 -3.54236,0.34642 -5.31533,0.82149 -4.87573,1.30645 -9.02358,3.98057 -12.15269,7.49494 l 3.02647,2.69279 c 2.62123,-2.94562 6.08488,-5.19634 10.17016,-6.29099 4.15089,-1.11223 8.35164,-0.88942 12.14292,0.40197 l -1.5864,3.72893 c -2.98489,-0.95701 -6.26676,-1.10388 -9.51258,-0.23416 -7.41403,1.98659 -12.35453,8.6356 -12.52343,15.94796 l -3.34062,0.37269 h 7.37981 c 0.008,-5.67721 3.78858,-10.88597 9.52818,-12.4239 6.85736,-1.83742 13.93101,2.24739 15.76844,9.10475 0.29719,1.10913 0.42472,2.22173 0.42538,3.31915 h 4.03138 c -4.5e-4,-1.44239 -0.16739,-2.90504 -0.55807,-4.3631 -1.16785,-4.35846 -3.95059,-7.86169 -7.52811,-10.04527 l 1.59422,-3.74455 c 4.67721,2.67764 8.32888,7.13933 9.83063,12.74393 0.48403,1.80639 0.71054,3.62225 0.71028,5.40899 h 4.03333 c 0.002,-2.13135 -0.26731,-4.29728 -0.84492,-6.45294 -1.83524,-6.84925 -6.36746,-12.26567 -12.14487,-15.4289 l -3.6821,-1.65081 c -1.74189,-0.61675 -3.55903,-1.03969 -5.41875,-1.25858 l 0.0839,-4.05089 c 0.44739,0.0465 0.89172,0.10663 1.33469,0.17366 l 0.17952,-4.05869 c -4.2353,-0.5866 -8.65151,-0.35492 -13.03467,0.81954 -10.22665,2.74023 -18.04218,10.02055 -21.87793,19.08954 l -3.83821,-1.2781 c 4.25854,-10.3108 13.0888,-18.60442 24.6722,-21.70818 0.96445,-0.25843 1.92998,-0.45877 2.89573,-0.63417 z m 31.71834,7.28809 -4.90166,6.3944 c -3.02336,-2.18954 -6.40576,-3.86133 -9.9965,-4.93483 l -0.81368,3.97284 c 9.18765,2.86389 16.76719,10.2208 19.43686,20.18422 0.67099,2.50417 0.97929,5.01944 0.97955,7.49688 h 4.04115 c -3.5e-4,-2.82206 -0.35966,-5.68841 -1.12395,-8.54083 -1.66455,-6.21217 -5.00902,-11.53142 -9.40721,-15.61427 l 2.50157,-3.17672 c 4.54955,4.1478 8.11331,9.4658 10.16625,15.65136 l 3.82649,-1.25859 c -2.7688,-8.35432 -8.02106,-15.28139 -14.70887,-20.17446 z m -46.60284,21.91697 c -1.72496,3.42579 -2.65695,7.25299 -2.66156,11.19654 h 4.02358 c 0.004,-3.31036 0.81232,-6.51533 2.26155,-9.38964 z m 21.61258,2.39619 c -0.50504,0.0441 -1.01352,0.11792 -1.52007,0.25367 -3.94735,1.05771 -6.54381,4.64157 -6.54074,8.54668 h 4.04504 c -0.003,-2.12368 1.3957,-4.07494 3.5416,-4.64994 0.28279,-0.0758 0.56477,-0.11823 0.84686,-0.14049 z m 40.94601,0.49368 -3.95723,0.80979 c 0.52054,2.50948 0.76667,5.01804 0.76686,7.49688 h 4.03529 c -0.001,-2.74663 -0.26893,-5.52684 -0.84492,-8.30667 z m -81.08615,3.5338 c -0.18744,1.57382 -0.27508,3.16852 -0.27708,4.77287 h 4.03918 c 0.003,-1.44231 0.0803,-2.87563 0.24781,-4.2909 z m 48.55607,0.33367 -3.48305,2.04106 c 0.20378,0.352 0.36791,0.73435 0.47806,1.14541 0.11234,0.41927 0.14553,0.83807 0.14439,1.25273 h 4.0431 c 9.7e-4,-0.75888 -0.0851,-1.52947 -0.29075,-2.29668 -0.20606,-0.76905 -0.50943,-1.4855 -0.89175,-2.14252 z m -7.3837,2.82548 c -0.211,-0.0293 -0.43098,-0.0177 -0.64978,0.041 -0.72871,0.19526 -1.18107,0.85343 -1.18639,1.57275 h 3.21964 c -7.5e-4,-0.13766 0.0119,-0.2745 -0.0254,-0.41367 -0.17597,-0.6567 -0.72509,-1.11209 -1.35811,-1.20005 z" /><path
           d="m 275.51,224.31 8.78,-20.97 c 3.91,1.01 8.01,1.55 12.24,1.55 27.02,0 49.01,-21.98 49.01,-49.01 h -12.42 c 0,20.17 -16.41,36.58 -36.58,36.58 -20.17,0 -36.58,-16.41 -36.58,-36.58 h -12.42 c 0,18.4 10.2,34.46 25.24,42.84 l -8.71,20.79 11.46,4.8 z"
           id="path66" /></g><g
         id="g332"><text
           xml:space="preserve"
           style="font-style:normal;font-weight:normal;font-size:90.4777px;line-height:1.25;font-family:sans-serif;letter-spacing:0px;word-spacing:0px;fill:#000000;fill-opacity:1;stroke:none;stroke-width:2.26195"
           x="149.44971"
           y="286.22754"
           id="text2721"><tspan
             sodipodi:role="line"
             id="tspan2719"
             x="149.44971"
             y="286.22754"
             style="font-style:normal;font-variant:normal;font-weight:bold;font-stretch:normal;font-family:'Plus Jakarta Sans';-inkscape-font-specification:'Plus Jakarta Sans Bold';stroke-width:2.26195">search</tspan></text><text
           xml:space="preserve"
           style="font-style:normal;font-weight:normal;font-size:90.4777px;line-height:1.25;font-family:sans-serif;letter-spacing:0px;word-spacing:0px;fill:#000000;fill-opacity:1;stroke:none;stroke-width:2.26195"
           x="154.49367"
           y="475.23001"
           id="text903"><tspan
             sodipodi:role="line"
             id="tspan901"
             x="154.49367"
             y="475.23001"
             style="font-style:normal;font-variant:normal;font-weight:bold;font-stretch:normal;font-family:'Plus Jakarta Sans';-inkscape-font-specification:'Plus Jakarta Sans Bold';stroke-width:2.26195">licious</tspan></text><g
           id="g26064"
           transform="rotate(-5,1731.1205,3589.2048)"><rect
             style="fill:#762694;fill-opacity:1;stroke-width:2.32381;paint-order:stroke markers fill;stop-color:#000000"
             id="rect25479"
             width="119.8"
             height="89.688293"
             x="524.63776"
             y="192.40433"
             rx="16.115082"
             ry="16.404444"
             transform="matrix(0.99999998,-1.8514998e-4,8.8106419e-5,1,0,0)" /><g
             id="g26056"
             transform="translate(-0.99989095,-0.72975283)"><text
               xml:space="preserve"
               style="font-style:normal;font-weight:normal;font-size:74.8483px;line-height:1.25;font-family:sans-serif;text-align:center;letter-spacing:0px;word-spacing:0px;text-anchor:middle;fill:#ffffff;fill-opacity:1;stroke:none;stroke-width:1.87121"
               x="578.39618"
               y="267.50491"
               id="text25483"
               transform="matrix(1.0134301,0.00246037,-0.00252691,0.98674176,0,0)"><tspan
                 sodipodi:role="line"
                 id="tspan25481"
                 x="578.39618"
                 y="267.50491"
                 style="font-style:normal;font-variant:normal;font-weight:bold;font-stretch:normal;font-family:'Plus Jakarta Sans';-inkscape-font-specification:'Plus Jakarta Sans Bold';text-align:center;text-anchor:middle;fill:#ffffff;fill-opacity:1;stroke-width:1.87121">A</tspan></text><rect
               style="fill:#ffffff;fill-opacity:1;stroke-width:1.624;paint-order:stroke markers fill;stop-color:#000000"
               id="rect25485"
               width="18.999779"
               height="9.475071"
               x="540.93262"
               y="240.92677"
               rx="0"
               ry="0"
               transform="rotate(-0.00731793)" /><rect
               style="fill:#ffffff;fill-opacity:1;stroke-width:1.62399;paint-order:stroke markers fill;stop-color:#000000"
               id="rect25487"
               width="18.999649"
               height="9.475071"
               x="611.12207"
               y="240.92703"
               rx="0"
               ry="0"
               transform="rotate(-0.00731793)" /></g></g></g></g></g></svg>
