<?xml version="1.0" encoding="UTF-8" standalone="no"?>
<svg
   width="198.425"
   height="198.425"
   viewBox="0 0 198.425 198.425"
   version="1.1"
   id="svg6"
   sodipodi:docname="RVB_STICKER_WHITE_BG_SEARCH-A-LICIOUS.svg"
   inkscape:version="1.2.2 (b0a8486541, 2022-12-01)"
   xmlns:inkscape="http://www.inkscape.org/namespaces/inkscape"
   xmlns:sodipodi="http://sodipodi.sourceforge.net/DTD/sodipodi-0.dtd"
   xmlns="http://www.w3.org/2000/svg"
   xmlns:svg="http://www.w3.org/2000/svg">
  <defs
     id="defs10" />
  <sodipodi:namedview
     id="namedview8"
     pagecolor="#ffffff"
     bordercolor="#666666"
     borderopacity="1.0"
     inkscape:showpageshadow="2"
     inkscape:pageopacity="0.0"
     inkscape:pagecheckerboard="0"
     inkscape:deskcolor="#d1d1d1"
     showgrid="false"
     inkscape:zoom="3.0290576"
     inkscape:cx="55.957998"
     inkscape:cy="124.29608"
     inkscape:window-width="1920"
     inkscape:window-height="1016"
     inkscape:window-x="1536"
     inkscape:window-y="27"
     inkscape:window-maximized="1"
     inkscape:current-layer="g341" />
  <path
     fill="#FFF"
     d="M39.425 133.768v-69.11l60-34.561 60 34.561v69.11l-60 34.56z"
     id="path2" />
  <rect
     class="b"
     width="140.78484"
     height="136.2141"
     id="rect6"
     style="fill:none;stroke-width:0.237195"
     x="28.532581"
     y="23.383617" />
  <g
     id="g384"
     inkscape:export-filename="g384.png"
     inkscape:export-xdpi="460.79999"
     inkscape:export-ydpi="460.79999">
    <path
       fill="#050507"
       d="M98.925 32.983l57.5 33.119v66.221l-57.5 33.119-57.5-33.119V66.102l57.5-33.119zm0-5.771l-62.5 36v72.001l62.5 36 62.5-36V63.212l-62.5-36z"
       id="path4"
       style="fill:#762694;fill-opacity:1" />
    <g
       id="g341">
      <path
         class="c"
         d="m 107.52333,60.357609 c 0,4.793715 -3.88526,8.676601 -8.676602,8.676601 -4.793715,0 -8.6766,-3.885258 -8.6766,-8.676601 H 107.5257 Z"
         id="path58"
         style="fill:#ffffff;stroke-width:0.237195" />
      <g
         id="g12752"
         transform="matrix(0.23719521,0,0,0.23719521,28.532581,23.383619)">
        <path
           id="path4485"
           style="fill:#762694;fill-opacity:1;stroke-width:0.381681"
           d="m 297.58687,106.94733 a 49.126495,49.126495 0 0 0 -13.88542,1.66055 49.126495,49.126495 0 0 0 -17.87194,9.07743 l 2.34546,2.96988 c 4.72623,-3.79769 10.28438,-6.70735 16.50798,-8.37497 3.59973,-0.96455 7.21522,-1.45262 10.78481,-1.52396 l -0.0469,3.96503 0.11708,4.11333 c 6.53373,-0.14444 12.87509,1.45657 18.44757,4.46848 l 1.90446,-3.54551 c -5.03101,-2.718 -10.61905,-4.41358 -16.43578,-4.85678 l 0.0469,-4.03918 c 18.687,1.31632 35.36826,14.26043 40.48161,33.34377 1.0447,3.89889 1.534,7.81738 1.53372,11.6746 H 345.54 a 49.126495,49.126495 0 0 0 -1.67032,-12.53513 49.126495,49.126495 0 0 0 -46.28281,-36.39754 z m -8.63644,8.53107 c -1.075,0.19241 -2.15153,0.41274 -3.22549,0.70051 -7.11836,1.90736 -13.29289,5.5874 -18.1939,10.43164 l -5.66071,-5.31729 A 49.126495,49.126495 0 0 0 247.54,155.88 h 3.69772 c 0.007,-10.72669 3.85516,-20.9753 10.56627,-28.99432 l 2.99914,2.69864 c -3.6289,4.36548 -6.31958,9.45497 -7.90861,14.91962 l 7.69592,2.36302 c -0.82896,2.89868 -1.25756,5.92903 -1.26054,9.01304 h 4.02748 c 0.008,-12.80125 8.56069,-24.54342 21.50134,-28.01087 2.14975,-0.57603 4.30916,-0.88515 6.44514,-0.96394 l -0.0858,4.03919 c -1.76263,0.0815 -3.54236,0.34642 -5.31533,0.82149 -4.87573,1.30645 -9.02358,3.98057 -12.15269,7.49494 l 3.02647,2.69279 c 2.62123,-2.94562 6.08488,-5.19634 10.17016,-6.29099 4.15089,-1.11223 8.35164,-0.88942 12.14292,0.40197 l -1.5864,3.72893 c -2.98489,-0.95701 -6.26676,-1.10388 -9.51258,-0.23416 -7.41403,1.98659 -12.35453,8.6356 -12.52343,15.94796 l -3.34062,0.37269 h 7.37981 c 0.008,-5.67721 3.78858,-10.88597 9.52818,-12.4239 6.85736,-1.83742 13.93101,2.24739 15.76844,9.10475 0.29719,1.10913 0.42472,2.22173 0.42538,3.31915 h 4.03138 c -4.5e-4,-1.44239 -0.16739,-2.90504 -0.55807,-4.3631 -1.16785,-4.35846 -3.95059,-7.86169 -7.52811,-10.04527 l 1.59422,-3.74455 c 4.67721,2.67764 8.32888,7.13933 9.83063,12.74393 0.48403,1.80639 0.71054,3.62225 0.71028,5.40899 h 4.03333 c 0.002,-2.13135 -0.26731,-4.29728 -0.84492,-6.45294 -1.83524,-6.84925 -6.36746,-12.26567 -12.14487,-15.4289 l -3.6821,-1.65081 c -1.74189,-0.61675 -3.55903,-1.03969 -5.41875,-1.25858 l 0.0839,-4.05089 c 0.44739,0.0465 0.89172,0.10663 1.33469,0.17366 l 0.17952,-4.05869 c -4.2353,-0.5866 -8.65151,-0.35492 -13.03467,0.81954 -10.22665,2.74023 -18.04218,10.02055 -21.87793,19.08954 l -3.83821,-1.2781 c 4.25854,-10.3108 13.0888,-18.60442 24.6722,-21.70818 0.96445,-0.25843 1.92998,-0.45877 2.89573,-0.63417 z m 31.71834,7.28809 -4.90166,6.3944 c -3.02336,-2.18954 -6.40576,-3.86133 -9.9965,-4.93483 l -0.81368,3.97284 c 9.18765,2.86389 16.76719,10.2208 19.43686,20.18422 0.67099,2.50417 0.97929,5.01944 0.97955,7.49688 h 4.04115 c -3.5e-4,-2.82206 -0.35966,-5.68841 -1.12395,-8.54083 -1.66455,-6.21217 -5.00902,-11.53142 -9.40721,-15.61427 l 2.50157,-3.17672 c 4.54955,4.1478 8.11331,9.4658 10.16625,15.65136 l 3.82649,-1.25859 c -2.7688,-8.35432 -8.02106,-15.28139 -14.70887,-20.17446 z m -46.60284,21.91697 c -1.72496,3.42579 -2.65695,7.25299 -2.66156,11.19654 h 4.02358 c 0.004,-3.31036 0.81232,-6.51533 2.26155,-9.38964 z m 21.61258,2.39619 c -0.50504,0.0441 -1.01352,0.11792 -1.52007,0.25367 -3.94735,1.05771 -6.54381,4.64157 -6.54074,8.54668 h 4.04504 c -0.003,-2.12368 1.3957,-4.07494 3.5416,-4.64994 0.28279,-0.0758 0.56477,-0.11823 0.84686,-0.14049 z m 40.94601,0.49368 -3.95723,0.80979 c 0.52054,2.50948 0.76667,5.01804 0.76686,7.49688 h 4.03529 c -0.001,-2.74663 -0.26893,-5.52684 -0.84492,-8.30667 z m -81.08615,3.5338 c -0.18744,1.57382 -0.27508,3.16852 -0.27708,4.77287 h 4.03918 c 0.003,-1.44231 0.0803,-2.87563 0.24781,-4.2909 z m 48.55607,0.33367 -3.48305,2.04106 c 0.20378,0.352 0.36791,0.73435 0.47806,1.14541 0.11234,0.41927 0.14553,0.83807 0.14439,1.25273 h 4.0431 c 9.7e-4,-0.75888 -0.0851,-1.52947 -0.29075,-2.29668 -0.20606,-0.76905 -0.50943,-1.4855 -0.89175,-2.14252 z m -7.3837,2.82548 c -0.211,-0.0293 -0.43098,-0.0177 -0.64978,0.041 -0.72871,0.19526 -1.18107,0.85343 -1.18639,1.57275 h 3.21964 c -7.5e-4,-0.13766 0.0119,-0.2745 -0.0254,-0.41367 -0.17597,-0.6567 -0.72509,-1.11209 -1.35811,-1.20005 z" />
        <path
           d="m 275.51,224.31 8.78,-20.97 c 3.91,1.01 8.01,1.55 12.24,1.55 27.02,0 49.01,-21.98 49.01,-49.01 h -12.42 c 0,20.17 -16.41,36.58 -36.58,36.58 -20.17,0 -36.58,-16.41 -36.58,-36.58 h -12.42 c 0,18.4 10.2,34.46 25.24,42.84 l -8.71,20.79 11.46,4.8 z"
           id="path66" />
      </g>
      <path
         d="m 100.94353,60.357609 c 0,-1.162257 -0.9298,-2.106294 -2.075454,-2.106294 -1.145653,0 -2.075458,0.944037 -2.075458,2.106294 h 4.148542 z"
         id="path18341"
         style="stroke-width:0.237195" />
      <g
         aria-label="search"
         id="text2721"
         style="font-size:21.4609px;line-height:1.25;letter-spacing:0px;word-spacing:0px;stroke-width:0.536524">
        <path
           d="m 69.732856,91.532952 q -1.867099,0 -3.262057,-0.879897 -1.373498,-0.901358 -1.888559,-2.425082 l 2.103168,-1.008662 q 0.450679,0.987202 1.244732,1.545185 0.815514,0.557983 1.802716,0.557983 0.772592,0 1.223271,-0.343374 0.450679,-0.343374 0.450679,-0.901358 0,-0.343374 -0.193148,-0.557983 -0.171687,-0.23607 -0.493601,-0.386296 -0.300453,-0.171688 -0.665288,-0.278992 l -1.91002,-0.536523 q -1.480802,-0.429218 -2.253394,-1.309114 -0.751132,-0.879897 -0.751132,-2.081708 0,-1.073045 0.536523,-1.867098 0.557983,-0.815514 1.523724,-1.266193 0.987201,-0.450679 2.253394,-0.450679 1.652489,0 2.918682,0.794053 1.266193,0.794054 1.802716,2.231934 l -2.14609,1.008662 q -0.300453,-0.794053 -1.008662,-1.266193 -0.70821,-0.47214 -1.588107,-0.47214 -0.70821,0 -1.115967,0.321914 -0.407757,0.321913 -0.407757,0.836975 0,0.321913 0.171687,0.557983 0.171688,0.23607 0.47214,0.386296 0.321914,0.150227 0.729671,0.278992 l 1.867098,0.557984 q 1.43788,0.429218 2.210473,1.287654 0.794053,0.858435 0.794053,2.103168 0,1.051584 -0.557983,1.867098 -0.557984,0.794053 -1.545185,1.244732 -0.987202,0.450679 -2.317777,0.450679 z"
           style="font-weight:bold;font-family:'Plus Jakarta Sans';-inkscape-font-specification:'Plus Jakarta Sans Bold'"
           id="path631" />
        <path
           d="m 81.858263,91.532952 q -1.802716,0 -3.154753,-0.815514 -1.352036,-0.815514 -2.103168,-2.210473 -0.751131,-1.394958 -0.751131,-3.090369 0,-1.759794 0.751131,-3.111831 0.772593,-1.373497 2.081707,-2.167551 1.330576,-0.794053 2.961605,-0.794053 1.373497,0 2.40362,0.450679 1.051584,0.450679 1.781255,1.244732 0.72967,0.794053 1.115967,1.824177 0.386296,1.008662 0.386296,2.189011 0,0.300453 -0.04292,0.622366 -0.02146,0.321914 -0.107304,0.557984 h -9.013578 v -2.14609 h 7.425471 l -1.330576,1.008662 q 0.193148,-0.987201 -0.107304,-1.759794 -0.278992,-0.772592 -0.94428,-1.223271 -0.643827,-0.450679 -1.566645,-0.450679 -0.879897,0 -1.566646,0.450679 -0.686749,0.429218 -1.051584,1.287654 -0.343375,0.836975 -0.257531,2.038786 -0.08584,1.073044 0.278992,1.91002 0.386296,0.815514 1.115966,1.266193 0.751132,0.450679 1.716872,0.450679 0.965741,0 1.631029,-0.407758 0.686749,-0.407757 1.073045,-1.094505 l 2.274855,1.115966 q -0.343374,0.836975 -1.073045,1.480802 -0.72967,0.643827 -1.738333,1.008663 -0.987201,0.364835 -2.189011,0.364835 z"
           style="font-weight:bold;font-family:'Plus Jakarta Sans';-inkscape-font-specification:'Plus Jakarta Sans Bold'"
           id="path633" />
        <path
           d="m 92.942796,91.532952 q -1.223272,0 -2.124629,-0.407757 -0.901358,-0.407757 -1.394959,-1.158889 -0.493601,-0.772592 -0.493601,-1.781254 0,-0.965741 0.429218,-1.716872 0.429218,-0.772593 1.330576,-1.287654 0.901358,-0.515062 2.274855,-0.729671 l 3.820041,-0.622366 v 2.14609 l -3.283518,0.557983 q -0.836975,0.150227 -1.244732,0.536523 -0.407757,0.386296 -0.407757,1.008662 0,0.600905 0.450679,0.965741 0.472139,0.343374 1.158888,0.343374 0.879897,0 1.545185,-0.364835 0.686749,-0.386296 1.051584,-1.051584 0.386296,-0.665288 0.386296,-1.459342 v -3.004525 q 0,-0.751132 -0.600905,-1.244733 -0.579444,-0.515061 -1.545185,-0.515061 -0.901358,0 -1.609567,0.493601 -0.686749,0.472139 -1.008663,1.266193 l -2.296316,-1.115967 q 0.343375,-0.922819 1.073045,-1.588107 0.751132,-0.686749 1.759794,-1.073045 1.008662,-0.386296 2.189012,-0.386296 1.43788,0 2.532386,0.536523 1.094506,0.515061 1.695411,1.459341 0.622366,0.922818 0.622366,2.167551 v 7.768845 h -2.661152 v -1.995863 l 0.600906,-0.04292 q -0.450679,0.751131 -1.073045,1.266193 -0.622366,0.4936 -1.41642,0.772592 -0.794053,0.257531 -1.759793,0.257531 z"
           style="font-weight:bold;font-family:'Plus Jakarta Sans';-inkscape-font-specification:'Plus Jakarta Sans Bold'"
           id="path635" />
        <path
           d="M 101.84907,91.275421 V 79.600692 h 2.63969 v 2.596769 l -0.21461,-0.386296 q 0.40775,-1.309115 1.26619,-1.824177 0.8799,-0.515062 2.10317,-0.515062 h 0.68675 v 2.489465 h -1.00866 q -1.20181,0 -1.93149,0.751131 -0.72967,0.729671 -0.72967,2.060247 v 6.502652 z"
           style="font-weight:bold;font-family:'Plus Jakarta Sans';-inkscape-font-specification:'Plus Jakarta Sans Bold'"
           id="path637" />
        <path
           d="m 115.49821,91.532952 q -1.73833,0 -3.13329,-0.794053 -1.3735,-0.815515 -2.16755,-2.189012 -0.79405,-1.394959 -0.79405,-3.133291 0,-1.738333 0.79405,-3.111831 0.79405,-1.373497 2.16755,-2.167551 1.39496,-0.794053 3.13329,-0.794053 1.24473,0 2.31778,0.450679 1.07304,0.429218 1.84564,1.20181 0.79405,0.751132 1.13742,1.802716 l -2.468,1.073045 q -0.32191,-0.879897 -1.09451,-1.416419 -0.75113,-0.536523 -1.73833,-0.536523 -0.92282,0 -1.65249,0.450679 -0.70821,0.450679 -1.11596,1.244732 -0.40776,0.794053 -0.40776,1.824177 0,1.030123 0.40776,1.824176 0.40775,0.794053 1.11596,1.244732 0.72967,0.450679 1.65249,0.450679 1.00866,0 1.7598,-0.536522 0.75113,-0.536523 1.07304,-1.437881 l 2.468,1.115967 q -0.34337,0.987201 -1.11596,1.781255 -0.7726,0.772592 -1.84564,1.223271 -1.07305,0.429218 -2.33924,0.429218 z"
           style="font-weight:bold;font-family:'Plus Jakarta Sans';-inkscape-font-specification:'Plus Jakarta Sans Bold'"
           id="path639" />
        <path
           d="M 122.92368,91.275421 V 75.02952 h 2.81138 v 6.867488 l -0.3863,-0.407757 q 0.40776,-1.051584 1.33058,-1.588107 0.94427,-0.557983 2.18901,-0.557983 1.28765,0 2.27485,0.557983 1.00866,0.557984 1.56665,1.566646 0.55798,0.987202 0.55798,2.296316 v 7.511315 h -2.81138 v -6.846027 q 0,-0.772592 -0.30045,-1.330576 -0.30045,-0.557983 -0.83697,-0.858435 -0.51507,-0.321914 -1.22328,-0.321914 -0.68674,0 -1.22327,0.321914 -0.53652,0.300452 -0.83697,0.858435 -0.30045,0.557984 -0.30045,1.330576 v 6.846027 z"
           style="font-weight:bold;font-family:'Plus Jakarta Sans';-inkscape-font-specification:'Plus Jakarta Sans Bold'"
           id="path641" />
      </g>
      <g
         aria-label="licious"
         id="text903"
         style="font-size:21.4609px;line-height:1.25;letter-spacing:0px;word-spacing:0px;stroke-width:0.536524">
        <path
           d="M 66.486857,136.1059 V 119.86 h 2.811378 v 16.2459 z"
           style="font-weight:bold;font-family:'Plus Jakarta Sans';-inkscape-font-specification:'Plus Jakarta Sans Bold'"
           id="path749" />
        <path
           d="m 71.895021,136.1059 v -11.67473 h 2.811378 v 11.67473 z m 0,-12.98385 v -3.00452 h 2.811378 v 3.00452 z"
           style="font-weight:bold;font-family:'Plus Jakarta Sans';-inkscape-font-specification:'Plus Jakarta Sans Bold'"
           id="path751" />
        <path
           d="m 82.925941,136.36343 q -1.738333,0 -3.133292,-0.79406 -1.373497,-0.81551 -2.167551,-2.18901 -0.794053,-1.39496 -0.794053,-3.13329 0,-1.73833 0.794053,-3.11183 0.794054,-1.3735 2.167551,-2.16755 1.394959,-0.79405 3.133292,-0.79405 1.244732,0 2.317777,0.45067 1.073045,0.42922 1.845637,1.20182 0.794053,0.75113 1.137428,1.80271 l -2.468004,1.07305 q -0.321913,-0.8799 -1.094506,-1.41642 -0.751131,-0.53653 -1.738332,-0.53653 -0.922819,0 -1.65249,0.45068 -0.708209,0.45068 -1.115966,1.24473 -0.407758,0.79406 -0.407758,1.82418 0,1.03012 0.407758,1.82418 0.407757,0.79405 1.115966,1.24473 0.729671,0.45068 1.65249,0.45068 1.008662,0 1.759793,-0.53652 0.751132,-0.53653 1.073045,-1.43788 l 2.468004,1.11596 q -0.343375,0.9872 -1.115967,1.78126 -0.772592,0.77259 -1.845637,1.22327 -1.073045,0.42922 -2.339238,0.42922 z"
           style="font-weight:bold;font-family:'Plus Jakarta Sans';-inkscape-font-specification:'Plus Jakarta Sans Bold'"
           id="path753" />
        <path
           d="m 90.351408,136.1059 v -11.67473 h 2.811378 v 11.67473 z m 0,-12.98385 v -3.00452 h 2.811378 v 3.00452 z"
           style="font-weight:bold;font-family:'Plus Jakarta Sans';-inkscape-font-specification:'Plus Jakarta Sans Bold'"
           id="path755" />
        <path
           d="m 101.46817,136.36343 q -1.716871,0 -3.133291,-0.79406 -1.394958,-0.79405 -2.231933,-2.16755 -0.815514,-1.37349 -0.815514,-3.13329 0,-1.75979 0.815514,-3.13329 0.836975,-1.3735 2.231933,-2.16755 1.394959,-0.79405 3.133291,-0.79405 1.71687,0 3.11183,0.79405 1.39496,0.79405 2.21047,2.16755 0.83698,1.35204 0.83698,3.13329 0,1.7598 -0.83698,3.13329 -0.83697,1.3735 -2.23193,2.16755 -1.39496,0.79406 -3.09037,0.79406 z m 0,-2.57531 q 0.94428,0 1.65249,-0.45068 0.72967,-0.45068 1.13743,-1.24473 0.42922,-0.81552 0.42922,-1.82418 0,-1.03012 -0.42922,-1.80271 -0.40776,-0.79406 -1.13743,-1.24474 -0.70821,-0.47214 -1.65249,-0.47214 -0.96574,0 -1.69541,0.47214 -0.729671,0.45068 -1.158889,1.24474 -0.407757,0.77259 -0.407757,1.80271 0,1.00866 0.407757,1.82418 0.429218,0.79405 1.158889,1.24473 0.72967,0.45068 1.69541,0.45068 z"
           style="font-weight:bold;font-family:'Plus Jakarta Sans';-inkscape-font-specification:'Plus Jakarta Sans Bold'"
           id="path757" />
        <path
           d="m 113.9155,136.36343 q -1.35204,0 -2.3607,-0.60091 -0.9872,-0.6009 -1.52372,-1.67395 -0.51506,-1.07304 -0.51506,-2.51092 v -7.14648 h 2.81137 v 6.91041 q 0,0.72967 0.27899,1.28765 0.30046,0.53652 0.83698,0.85844 0.55798,0.30045 1.24473,0.30045 0.68675,0 1.22327,-0.30045 0.53653,-0.32192 0.83698,-0.8799 0.30045,-0.55798 0.30045,-1.33058 v -6.84602 h 2.81138 v 11.67473 h -2.66115 v -2.29632 l 0.23607,0.40776 q -0.40776,1.07304 -1.35204,1.60956 -0.92282,0.53653 -2.16755,0.53653 z"
           style="font-weight:bold;font-family:'Plus Jakarta Sans';-inkscape-font-specification:'Plus Jakarta Sans Bold'"
           id="path759" />
        <path
           d="m 126.92082,136.36343 q -1.8671,0 -3.26206,-0.8799 -1.3735,-0.90136 -1.88856,-2.42508 l 2.10317,-1.00866 q 0.45068,0.9872 1.24473,1.54518 0.81552,0.55798 1.80272,0.55798 0.77259,0 1.22327,-0.34337 0.45068,-0.34337 0.45068,-0.90136 0,-0.34337 -0.19315,-0.55798 -0.17169,-0.23607 -0.4936,-0.3863 -0.30045,-0.17168 -0.66529,-0.27899 l -1.91002,-0.53652 q -1.4808,-0.42922 -2.25339,-1.30912 -0.75114,-0.87989 -0.75114,-2.0817 0,-1.07305 0.53653,-1.8671 0.55798,-0.81552 1.52372,-1.2662 0.9872,-0.45067 2.2534,-0.45067 1.65248,0 2.91868,0.79405 1.26619,0.79405 1.80271,2.23193 l -2.14609,1.00867 q -0.30045,-0.79406 -1.00866,-1.2662 -0.70821,-0.47214 -1.58811,-0.47214 -0.7082,0 -1.11596,0.32192 -0.40776,0.32191 -0.40776,0.83697 0,0.32191 0.17169,0.55798 0.17169,0.23607 0.47214,0.3863 0.32191,0.15023 0.72967,0.27899 l 1.8671,0.55799 q 1.43788,0.42921 2.21047,1.28765 0.79405,0.85844 0.79405,2.10317 0,1.05158 -0.55798,1.8671 -0.55798,0.79405 -1.54519,1.24473 -0.9872,0.45068 -2.31777,0.45068 z"
           style="font-weight:bold;font-family:'Plus Jakarta Sans';-inkscape-font-specification:'Plus Jakarta Sans Bold'"
           id="path761" />
      </g>
      <g
         id="g26064"
         transform="matrix(0.23629261,-0.02067292,0.02067292,0.23629261,-44.104271,62.410557)">
        <rect
           style="fill:#762694;fill-opacity:1;stroke-width:2.32381;paint-order:stroke markers fill;stop-color:#000000"
           id="rect25479"
           width="119.8"
           height="89.688293"
           x="524.63776"
           y="192.40433"
           rx="16.115082"
           ry="16.404444"
           transform="matrix(0.99999998,-1.8514998e-4,8.8106419e-5,1,0,0)" />
        <g
           id="g26056"
           transform="translate(-0.99989095,-0.72975283)">
          <g
             aria-label="A"
             transform="matrix(1.0134301,0.00246037,-0.00252691,0.98674176,0,0)"
             id="text25483"
             style="font-size:74.8483px;line-height:1.25;text-align:center;letter-spacing:0px;word-spacing:0px;text-anchor:middle;fill:#ffffff;stroke-width:1.87121">
            <path
               d="m 552.57352,267.50491 19.23601,-55.76198 h 13.1733 l 19.23602,55.76198 H 593.1413 l -3.96696,-11.97572 h -21.55631 l -4.04181,11.97572 z m 17.96359,-20.95752 h 15.71814 l -9.28118,-27.76872 h 2.84423 z"
               style="font-weight:bold;font-family:'Plus Jakarta Sans';-inkscape-font-specification:'Plus Jakarta Sans Bold'"
               id="path644" />
          </g>
          <rect
             style="fill:#ffffff;fill-opacity:1;stroke-width:1.624;paint-order:stroke markers fill;stop-color:#000000"
             id="rect25485"
             width="18.999779"
             height="9.475071"
             x="540.93262"
             y="240.92677"
             rx="0"
             ry="0"
             transform="rotate(-0.00731793)" />
          <rect
             style="fill:#ffffff;fill-opacity:1;stroke-width:1.62399;paint-order:stroke markers fill;stop-color:#000000"
             id="rect25487"
             width="18.999649"
             height="9.475071"
             x="611.12207"
             y="240.92703"
             rx="0"
             ry="0"
             transform="rotate(-0.00731793)" />
        </g>
      </g>
    </g>
  </g>
</svg>
