<?xml version="1.0" encoding="UTF-8" standalone="no"?>
<svg
   id="a"
   viewBox="0 0 593.54 574.27"
   version="1.1"
   sodipodi:docname="RVB_VERTICAL_WHITE_BG_SEARCH-A-LICIOUS.svg"
   inkscape:version="1.2.2 (b0a8486541, 2022-12-01)"
   xml:space="preserve"
   xmlns:inkscape="http://www.inkscape.org/namespaces/inkscape"
   xmlns:sodipodi="http://sodipodi.sourceforge.net/DTD/sodipodi-0.dtd"
   xmlns="http://www.w3.org/2000/svg"
   xmlns:svg="http://www.w3.org/2000/svg"><sodipodi:namedview
     id="namedview87"
     pagecolor="#ffffff"
     bordercolor="#666666"
     borderopacity="1.0"
     inkscape:showpageshadow="2"
     inkscape:pageopacity="0.0"
     inkscape:pagecheckerboard="0"
     inkscape:deskcolor="#d1d1d1"
     showgrid="false"
     inkscape:zoom="1.046617"
     inkscape:cx="378.83963"
     inkscape:cy="356.86407"
     inkscape:window-width="1920"
     inkscape:window-height="1016"
     inkscape:window-x="1536"
     inkscape:window-y="27"
     inkscape:window-maximized="1"
     inkscape:current-layer="g26056"
     showguides="true" /><defs
     id="defs4"><style
       id="style2">.b{fill:none;}.c{fill:#fff;}.d{fill:#ffe6dc;}.e{fill:#ff6e78;}.f{fill:#aaa;}</style></defs><g
     id="g374"><rect
       class="b"
       width="593.54"
       height="574.27"
       id="rect6" /><g
       id="g48" /><path
       class="c"
       d="m 333.02,155.88 c 0,20.21 -16.38,36.58 -36.58,36.58 -20.21,0 -36.58,-16.38 -36.58,-36.58 h 73.17 z"
       id="path58" /><text
       xml:space="preserve"
       style="font-style:normal;font-weight:normal;font-size:73.6604px;line-height:1.25;font-family:sans-serif;letter-spacing:0px;word-spacing:0px;fill:#ffffff;fill-opacity:1;stroke:none;stroke-width:1.84151"
       x="40.501423"
       y="461.38281"
       id="text2775"
       transform="rotate(-9.7046355)"><tspan
         sodipodi:role="line"
         id="tspan2773"
         x="40.501423"
         y="461.38281"
         style="stroke-width:1.84151" /></text><rect
       class="b"
       width="593.53998"
       height="574.27002"
       id="rect18263"
       style="fill:none"
       x="0"
       y="0" /><path
       d="m 305.28,155.88 c 0,-4.9 -3.92,-8.88 -8.75,-8.88 -4.83,0 -8.75,3.98 -8.75,8.88 h 17.49 z"
       id="path18341" /><g
       id="g349"><g
         id="g12752"><path
           id="path4485"
           style="fill:#762694;fill-opacity:1;stroke-width:0.381681"
           d="m 297.58687,106.94733 a 49.126495,49.126495 0 0 0 -13.88542,1.66055 49.126495,49.126495 0 0 0 -17.87194,9.07743 l 2.34546,2.96988 c 4.72623,-3.79769 10.28438,-6.70735 16.50798,-8.37497 3.59973,-0.96455 7.21522,-1.45262 10.78481,-1.52396 l -0.0469,3.96503 0.11708,4.11333 c 6.53373,-0.14444 12.87509,1.45657 18.44757,4.46848 l 1.90446,-3.54551 c -5.03101,-2.718 -10.61905,-4.41358 -16.43578,-4.85678 l 0.0469,-4.03918 c 18.687,1.31632 35.36826,14.26043 40.48161,33.34377 1.0447,3.89889 1.534,7.81738 1.53372,11.6746 H 345.54 a 49.126495,49.126495 0 0 0 -1.67032,-12.53513 49.126495,49.126495 0 0 0 -46.28281,-36.39754 z m -8.63644,8.53107 c -1.075,0.19241 -2.15153,0.41274 -3.22549,0.70051 -7.11836,1.90736 -13.29289,5.5874 -18.1939,10.43164 l -5.66071,-5.31729 A 49.126495,49.126495 0 0 0 247.54,155.88 h 3.69772 c 0.007,-10.72669 3.85516,-20.9753 10.56627,-28.99432 l 2.99914,2.69864 c -3.6289,4.36548 -6.31958,9.45497 -7.90861,14.91962 l 7.69592,2.36302 c -0.82896,2.89868 -1.25756,5.92903 -1.26054,9.01304 h 4.02748 c 0.008,-12.80125 8.56069,-24.54342 21.50134,-28.01087 2.14975,-0.57603 4.30916,-0.88515 6.44514,-0.96394 l -0.0858,4.03919 c -1.76263,0.0815 -3.54236,0.34642 -5.31533,0.82149 -4.87573,1.30645 -9.02358,3.98057 -12.15269,7.49494 l 3.02647,2.69279 c 2.62123,-2.94562 6.08488,-5.19634 10.17016,-6.29099 4.15089,-1.11223 8.35164,-0.88942 12.14292,0.40197 l -1.5864,3.72893 c -2.98489,-0.95701 -6.26676,-1.10388 -9.51258,-0.23416 -7.41403,1.98659 -12.35453,8.6356 -12.52343,15.94796 l -3.34062,0.37269 h 7.37981 c 0.008,-5.67721 3.78858,-10.88597 9.52818,-12.4239 6.85736,-1.83742 13.93101,2.24739 15.76844,9.10475 0.29719,1.10913 0.42472,2.22173 0.42538,3.31915 h 4.03138 c -4.5e-4,-1.44239 -0.16739,-2.90504 -0.55807,-4.3631 -1.16785,-4.35846 -3.95059,-7.86169 -7.52811,-10.04527 l 1.59422,-3.74455 c 4.67721,2.67764 8.32888,7.13933 9.83063,12.74393 0.48403,1.80639 0.71054,3.62225 0.71028,5.40899 h 4.03333 c 0.002,-2.13135 -0.26731,-4.29728 -0.84492,-6.45294 -1.83524,-6.84925 -6.36746,-12.26567 -12.14487,-15.4289 l -3.6821,-1.65081 c -1.74189,-0.61675 -3.55903,-1.03969 -5.41875,-1.25858 l 0.0839,-4.05089 c 0.44739,0.0465 0.89172,0.10663 1.33469,0.17366 l 0.17952,-4.05869 c -4.2353,-0.5866 -8.65151,-0.35492 -13.03467,0.81954 -10.22665,2.74023 -18.04218,10.02055 -21.87793,19.08954 l -3.83821,-1.2781 c 4.25854,-10.3108 13.0888,-18.60442 24.6722,-21.70818 0.96445,-0.25843 1.92998,-0.45877 2.89573,-0.63417 z m 31.71834,7.28809 -4.90166,6.3944 c -3.02336,-2.18954 -6.40576,-3.86133 -9.9965,-4.93483 l -0.81368,3.97284 c 9.18765,2.86389 16.76719,10.2208 19.43686,20.18422 0.67099,2.50417 0.97929,5.01944 0.97955,7.49688 h 4.04115 c -3.5e-4,-2.82206 -0.35966,-5.68841 -1.12395,-8.54083 -1.66455,-6.21217 -5.00902,-11.53142 -9.40721,-15.61427 l 2.50157,-3.17672 c 4.54955,4.1478 8.11331,9.4658 10.16625,15.65136 l 3.82649,-1.25859 c -2.7688,-8.35432 -8.02106,-15.28139 -14.70887,-20.17446 z m -46.60284,21.91697 c -1.72496,3.42579 -2.65695,7.25299 -2.66156,11.19654 h 4.02358 c 0.004,-3.31036 0.81232,-6.51533 2.26155,-9.38964 z m 21.61258,2.39619 c -0.50504,0.0441 -1.01352,0.11792 -1.52007,0.25367 -3.94735,1.05771 -6.54381,4.64157 -6.54074,8.54668 h 4.04504 c -0.003,-2.12368 1.3957,-4.07494 3.5416,-4.64994 0.28279,-0.0758 0.56477,-0.11823 0.84686,-0.14049 z m 40.94601,0.49368 -3.95723,0.80979 c 0.52054,2.50948 0.76667,5.01804 0.76686,7.49688 h 4.03529 c -0.001,-2.74663 -0.26893,-5.52684 -0.84492,-8.30667 z m -81.08615,3.5338 c -0.18744,1.57382 -0.27508,3.16852 -0.27708,4.77287 h 4.03918 c 0.003,-1.44231 0.0803,-2.87563 0.24781,-4.2909 z m 48.55607,0.33367 -3.48305,2.04106 c 0.20378,0.352 0.36791,0.73435 0.47806,1.14541 0.11234,0.41927 0.14553,0.83807 0.14439,1.25273 h 4.0431 c 9.7e-4,-0.75888 -0.0851,-1.52947 -0.29075,-2.29668 -0.20606,-0.76905 -0.50943,-1.4855 -0.89175,-2.14252 z m -7.3837,2.82548 c -0.211,-0.0293 -0.43098,-0.0177 -0.64978,0.041 -0.72871,0.19526 -1.18107,0.85343 -1.18639,1.57275 h 3.21964 c -7.5e-4,-0.13766 0.0119,-0.2745 -0.0254,-0.41367 -0.17597,-0.6567 -0.72509,-1.11209 -1.35811,-1.20005 z" /><path
           d="m 275.51,224.31 8.78,-20.97 c 3.91,1.01 8.01,1.55 12.24,1.55 27.02,0 49.01,-21.98 49.01,-49.01 h -12.42 c 0,20.17 -16.41,36.58 -36.58,36.58 -20.17,0 -36.58,-16.41 -36.58,-36.58 h -12.42 c 0,18.4 10.2,34.46 25.24,42.84 l -8.71,20.79 11.46,4.8 z"
           id="path66" /></g><g
         id="g332"><g
           aria-label="search"
           id="text2721"
           style="font-size:90.4777px;line-height:1.25;letter-spacing:0px;word-spacing:0px;stroke-width:2.26195"><path
             d="m 173.69773,287.31327 q -7.87156,0 -13.75261,-3.70958 -5.79057,-3.80007 -7.96204,-10.22398 l 8.86682,-4.25246 q 1.90003,4.16198 5.2477,6.5144 3.43816,2.35242 7.60013,2.35242 3.2572,0 5.15723,-1.44764 1.90003,-1.44765 1.90003,-3.80007 0,-1.44764 -0.8143,-2.35242 -0.72382,-0.99525 -2.08099,-1.6286 -1.26668,-0.72382 -2.8048,-1.17621 l -8.05252,-2.26194 q -6.24296,-1.80955 -9.50016,-5.51914 -3.16672,-3.70958 -3.16672,-8.77634 0,-4.52388 2.26195,-7.87156 2.35242,-3.43815 6.42391,-5.33818 4.16198,-1.90003 9.50016,-1.90003 6.96678,0 12.30497,3.34767 5.33818,3.34768 7.60012,9.40968 l -9.04777,4.25246 q -1.26668,-3.34768 -4.25245,-5.33819 -2.98576,-1.99051 -6.69535,-1.99051 -2.98576,0 -4.70484,1.35717 -1.71907,1.35716 -1.71907,3.52863 0,1.35716 0.72382,2.35242 0.72382,0.99525 1.99051,1.6286 1.35716,0.63334 3.07624,1.17621 l 7.87156,2.35242 q 6.062,1.80955 9.3192,5.42866 3.34768,3.61911 3.34768,8.86681 0,4.43341 -2.35242,7.87156 -2.35242,3.34768 -6.5144,5.24771 -4.16197,1.90003 -9.77159,1.90003 z"
             style="font-weight:bold;font-family:'Plus Jakarta Sans';-inkscape-font-specification:'Plus Jakarta Sans Bold'"
             id="path404" /><path
             d="m 224.81762,287.31327 q -7.60012,0 -13.30022,-3.43815 -5.70009,-3.43815 -8.86681,-9.3192 -3.16672,-5.88105 -3.16672,-13.02879 0,-7.41917 3.16672,-13.11927 3.2572,-5.79057 8.77633,-9.13825 5.60962,-3.34767 12.48593,-3.34767 5.79057,0 10.1335,1.90003 4.43341,1.90003 7.50965,5.24771 3.07624,3.34767 4.70484,7.6906 1.6286,4.25245 1.6286,9.22873 0,1.26668 -0.18096,2.62385 -0.0905,1.35717 -0.45239,2.35242 h -38.00063 v -9.04777 h 31.30528 l -5.60961,4.25245 q 0.8143,-4.16197 -0.45239,-7.41917 -1.17621,-3.2572 -3.98102,-5.15723 -2.71433,-1.90003 -6.60487,-1.90003 -3.70959,0 -6.60487,1.90003 -2.89529,1.80956 -4.43341,5.42866 -1.44765,3.52863 -1.08573,8.59538 -0.36192,4.52389 1.17621,8.05252 1.62859,3.43815 4.70484,5.33818 3.16672,1.90004 7.23821,1.90004 4.0715,0 6.87631,-1.71908 2.89528,-1.71908 4.52388,-4.61436 l 9.59064,4.70484 q -1.44764,3.52863 -4.52389,6.24296 -3.07624,2.71433 -7.32869,4.25245 -4.16197,1.53812 -9.22873,1.53812 z"
             style="font-weight:bold;font-family:'Plus Jakarta Sans';-inkscape-font-specification:'Plus Jakarta Sans Bold'"
             id="path406" /><path
             d="m 271.54926,287.31327 q -5.15723,0 -8.95729,-1.71907 -3.80006,-1.71908 -5.88105,-4.8858 -2.08099,-3.2572 -2.08099,-7.50965 0,-4.0715 1.80956,-7.23822 1.80955,-3.25719 5.60961,-5.42866 3.80007,-2.17146 9.59064,-3.07624 l 16.10503,-2.62385 v 9.04777 l -13.84309,2.35242 q -3.52863,0.63334 -5.2477,2.26194 -1.71908,1.6286 -1.71908,4.25245 0,2.53338 1.90003,4.0715 1.99051,1.44764 4.8858,1.44764 3.70958,0 6.51439,-1.53812 2.89529,-1.6286 4.43341,-4.43341 1.6286,-2.80481 1.6286,-6.15248 v -12.66688 q 0,-3.16672 -2.53338,-5.2477 -2.4429,-2.17147 -6.51439,-2.17147 -3.80007,0 -6.78583,2.08099 -2.89529,1.99051 -4.25245,5.33818 l -9.68111,-4.70484 q 1.44764,-3.89054 4.52388,-6.69535 3.16672,-2.89528 7.41917,-4.52388 4.25245,-1.6286 9.22873,-1.6286 6.062,0 10.67637,2.26194 4.61436,2.17147 7.14773,6.15248 2.62386,3.89055 2.62386,9.13825 v 32.75293 h -11.21924 v -8.41443 l 2.53338,-0.18095 q -1.90003,3.16672 -4.52389,5.33818 -2.62385,2.08099 -5.97153,3.2572 -3.34767,1.08573 -7.41917,1.08573 z"
             style="font-weight:bold;font-family:'Plus Jakarta Sans';-inkscape-font-specification:'Plus Jakarta Sans Bold'"
             id="path408" /><path
             d="m 309.09751,286.22754 v -49.21987 h 11.12876 v 10.9478 l -0.90478,-1.6286 q 1.71908,-5.51914 5.33818,-7.6906 3.70959,-2.17147 8.86682,-2.17147 h 2.89528 v 10.49542 h -4.25245 q -5.06675,0 -8.14299,3.16672 -3.07624,3.07624 -3.07624,8.68586 v 27.41474 z"
             style="font-weight:bold;font-family:'Plus Jakarta Sans';-inkscape-font-specification:'Plus Jakarta Sans Bold'"
             id="path410" /><path
             d="m 366.64137,287.31327 q -7.3287,0 -13.20975,-3.34767 -5.79057,-3.43816 -9.13825,-9.22873 -3.34767,-5.88105 -3.34767,-13.20974 0,-7.3287 3.34767,-13.11927 3.34768,-5.79057 9.13825,-9.13825 5.88105,-3.34767 13.20975,-3.34767 5.2477,0 9.77159,1.90003 4.52388,1.80955 7.78108,5.06675 3.34767,3.16672 4.79532,7.60013 l -10.40494,4.52388 q -1.35716,-3.70958 -4.61436,-5.97153 -3.16672,-2.26194 -7.32869,-2.26194 -3.89055,0 -6.96679,1.90003 -2.98576,1.90004 -4.70484,5.24771 -1.71907,3.34768 -1.71907,7.6906 0,4.34293 1.71907,7.69061 1.71908,3.34767 4.70484,5.24771 3.07624,1.90003 6.96679,1.90003 4.25245,0 7.41917,-2.26194 3.16672,-2.26195 4.52388,-6.06201 l 10.40494,4.70484 q -1.44765,4.16197 -4.70484,7.50965 -3.2572,3.2572 -7.78109,5.15723 -4.52388,1.80955 -9.86206,1.80955 z"
             style="font-weight:bold;font-family:'Plus Jakarta Sans';-inkscape-font-specification:'Plus Jakarta Sans Bold'"
             id="path412" /><path
             d="m 397.94663,286.22754 v -68.49162 h 11.85258 v 28.95286 l -1.6286,-1.71907 q 1.71908,-4.43341 5.60962,-6.69535 3.98102,-2.35242 9.22872,-2.35242 5.42866,0 9.59064,2.35242 4.25245,2.35242 6.60487,6.60487 2.35242,4.16197 2.35242,9.68111 v 31.6672 H 429.7043 v -28.86239 q 0,-3.25719 -1.26669,-5.60961 -1.26668,-2.35242 -3.52863,-3.61911 -2.17146,-1.35717 -5.15722,-1.35717 -2.89529,0 -5.15723,1.35717 -2.26195,1.26669 -3.52863,3.61911 -1.26669,2.35242 -1.26669,5.60961 v 28.86239 z"
             style="font-weight:bold;font-family:'Plus Jakarta Sans';-inkscape-font-specification:'Plus Jakarta Sans Bold'"
             id="path414" /></g><g
           aria-label="licious"
           id="text903"
           style="font-size:90.4777px;line-height:1.25;letter-spacing:0px;word-spacing:0px;stroke-width:2.26195"><path
             d="m 160.01281,475.23001 v -68.49162 h 11.85258 v 68.49162 z"
             style="font-weight:bold;font-family:'Plus Jakarta Sans';-inkscape-font-specification:'Plus Jakarta Sans Bold'"
             id="path417" /><path
             d="m 182.81326,475.23001 v -49.21987 h 11.85258 v 49.21987 z m 0,-54.73901 v -12.66687 h 11.85258 V 420.491 Z"
             style="font-weight:bold;font-family:'Plus Jakarta Sans';-inkscape-font-specification:'Plus Jakarta Sans Bold'"
             id="path419" /><path
             d="m 229.31887,476.31574 q -7.32869,0 -13.20974,-3.34767 -5.79058,-3.43815 -9.13825,-9.22873 -3.34768,-5.88105 -3.34768,-13.20974 0,-7.32869 3.34768,-13.11927 3.34767,-5.79057 9.13825,-9.13824 5.88105,-3.34768 13.20974,-3.34768 5.24771,0 9.77159,1.90003 4.52389,1.80956 7.78108,5.06675 3.34768,3.16672 4.79532,7.60013 l -10.40493,4.52388 q -1.35717,-3.70958 -4.61437,-5.97152 -3.16671,-2.26195 -7.32869,-2.26195 -3.89054,0 -6.96678,1.90004 -2.98577,1.90003 -4.70484,5.2477 -1.71908,3.34768 -1.71908,7.69061 0,4.34293 1.71908,7.6906 1.71907,3.34768 4.70484,5.24771 3.07624,1.90003 6.96678,1.90003 4.25245,0 7.41917,-2.26194 3.16672,-2.26195 4.52389,-6.06201 l 10.40493,4.70484 q -1.44764,4.16198 -4.70484,7.50965 -3.25719,3.2572 -7.78108,5.15723 -4.52388,1.80955 -9.86207,1.80955 z"
             style="font-weight:bold;font-family:'Plus Jakarta Sans';-inkscape-font-specification:'Plus Jakarta Sans Bold'"
             id="path421" /><path
             d="m 260.62414,475.23001 v -49.21987 h 11.85257 v 49.21987 z m 0,-54.73901 v -12.66687 h 11.85257 V 420.491 Z"
             style="font-weight:bold;font-family:'Plus Jakarta Sans';-inkscape-font-specification:'Plus Jakarta Sans Bold'"
             id="path423" /><path
             d="m 307.49166,476.31574 q -7.23822,0 -13.20975,-3.34767 -5.88105,-3.34768 -9.40968,-9.13825 -3.43815,-5.79057 -3.43815,-13.20974 0,-7.41917 3.43815,-13.20975 3.52863,-5.79057 9.40968,-9.13824 5.88105,-3.34768 13.20975,-3.34768 7.23821,0 13.11926,3.34768 5.88105,3.34767 9.31921,9.13824 3.52863,5.7001 3.52863,13.20975 0,7.41917 -3.52863,13.20974 -3.52863,5.79057 -9.40968,9.13825 -5.88106,3.34767 -13.02879,3.34767 z m 0,-10.85732 q 3.98102,0 6.96678,-1.90003 3.07624,-1.90003 4.79532,-5.24771 1.80955,-3.43815 1.80955,-7.6906 0,-4.34293 -1.80955,-7.60013 -1.71908,-3.34767 -4.79532,-5.24771 -2.98576,-1.99051 -6.96678,-1.99051 -4.0715,0 -7.14774,1.99051 -3.07624,1.90004 -4.8858,5.24771 -1.71907,3.2572 -1.71907,7.60013 0,4.25245 1.71907,7.6906 1.80956,3.34768 4.8858,5.24771 3.07624,1.90003 7.14774,1.90003 z"
             style="font-weight:bold;font-family:'Plus Jakarta Sans';-inkscape-font-specification:'Plus Jakarta Sans Bold'"
             id="path425" /><path
             d="m 359.96876,476.31574 q -5.7001,0 -9.95255,-2.53337 -4.16198,-2.53338 -6.42392,-7.05726 -2.17146,-4.52389 -2.17146,-10.58589 v -30.12908 h 11.85258 v 29.13382 q 0,3.07624 1.17621,5.42866 1.26668,2.26195 3.52863,3.61911 2.35242,1.26669 5.2477,1.26669 2.89529,0 5.15723,-1.26669 2.26194,-1.35716 3.52863,-3.70958 1.26669,-2.35242 1.26669,-5.60962 v -28.86239 h 11.85258 v 49.21987 h -11.21924 v -9.68111 l 0.99526,1.71907 q -1.71908,4.52389 -5.7001,6.78583 -3.89054,2.26194 -9.13824,2.26194 z"
             style="font-weight:bold;font-family:'Plus Jakarta Sans';-inkscape-font-specification:'Plus Jakarta Sans Bold'"
             id="path427" /><path
             d="m 414.79829,476.31574 q -7.87156,0 -13.75261,-3.70958 -5.79058,-3.80007 -7.96204,-10.22398 l 8.86681,-4.25245 q 1.90003,4.16197 5.24771,6.51439 3.43815,2.35242 7.60013,2.35242 3.25719,0 5.15722,-1.44764 1.90004,-1.44765 1.90004,-3.80007 0,-1.44764 -0.8143,-2.35242 -0.72382,-0.99525 -2.08099,-1.62859 -1.26669,-0.72383 -2.80481,-1.17622 l -8.05251,-2.26194 q -6.24297,-1.80955 -9.50016,-5.51914 -3.16672,-3.70958 -3.16672,-8.77633 0,-4.52389 2.26194,-7.87156 2.35242,-3.43816 6.42392,-5.33819 4.16197,-1.90003 9.50016,-1.90003 6.96678,0 12.30496,3.34768 5.33819,3.34767 7.60013,9.40968 l -9.04777,4.25245 q -1.26669,-3.34768 -4.25245,-5.33819 -2.98577,-1.99051 -6.69535,-1.99051 -2.98577,0 -4.70484,1.35717 -1.71908,1.35716 -1.71908,3.52863 0,1.35717 0.72382,2.35242 0.72382,0.99525 1.99051,1.6286 1.35717,0.63334 3.07624,1.17621 l 7.87156,2.35242 q 6.06201,1.80955 9.31921,5.42866 3.34767,3.61911 3.34767,8.86682 0,4.4334 -2.35242,7.87156 -2.35242,3.34767 -6.51439,5.2477 -4.16198,1.90003 -9.77159,1.90003 z"
             style="font-weight:bold;font-family:'Plus Jakarta Sans';-inkscape-font-specification:'Plus Jakarta Sans Bold'"
             id="path429" /></g><g
           id="g26064"
           transform="rotate(-5,1731.1205,3589.2048)"><rect
             style="fill:#762694;fill-opacity:1;stroke-width:2.32381;paint-order:stroke markers fill;stop-color:#000000"
             id="rect25479"
             width="119.8"
             height="89.688293"
             x="524.63776"
             y="192.40433"
             rx="16.115082"
             ry="16.404444"
             transform="matrix(0.99999998,-1.8514998e-4,8.8106419e-5,1,0,0)" /><g
             id="g26056"
             transform="translate(-0.99989095,-0.72975283)"><g
               aria-label="A"
               transform="matrix(1.0134301,0.00246037,-0.00252691,0.98674176,0,0)"
               id="text25483"
               style="font-size:74.8483px;line-height:1.25;text-align:center;letter-spacing:0px;word-spacing:0px;text-anchor:middle;fill:#ffffff;stroke-width:1.87121"><path
                 d="m 552.57352,267.50491 19.23601,-55.76198 h 13.1733 l 19.23602,55.76198 H 593.1413 l -3.96696,-11.97572 h -21.55631 l -4.04181,11.97572 z m 17.96359,-20.95752 h 15.71814 l -9.28118,-27.76872 h 2.84423 z"
                 style="font-weight:bold;font-family:'Plus Jakarta Sans';-inkscape-font-specification:'Plus Jakarta Sans Bold'"
                 id="path432" /></g><rect
               style="fill:#ffffff;fill-opacity:1;stroke-width:1.624;paint-order:stroke markers fill;stop-color:#000000"
               id="rect25485"
               width="18.999779"
               height="9.475071"
               x="540.93262"
               y="240.92677"
               rx="0"
               ry="0"
               transform="rotate(-0.00731793)" /><rect
               style="fill:#ffffff;fill-opacity:1;stroke-width:1.62399;paint-order:stroke markers fill;stop-color:#000000"
               id="rect25487"
               width="18.999649"
               height="9.475071"
               x="611.12207"
               y="240.92703"
               rx="0"
               ry="0"
               transform="rotate(-0.00731793)" /></g></g></g></g></g></svg>
